<?xml version="1.0" encoding="UTF-8" standalone="no"?>
<!-- Created with Inkscape (http://www.inkscape.org/) -->

<svg
   xmlns:dc="http://purl.org/dc/elements/1.1/"
   xmlns:cc="http://creativecommons.org/ns#"
   xmlns:rdf="http://www.w3.org/1999/02/22-rdf-syntax-ns#"
   xmlns:svg="http://www.w3.org/2000/svg"
   xmlns="http://www.w3.org/2000/svg"
   xmlns:sodipodi="http://sodipodi.sourceforge.net/DTD/sodipodi-0.dtd"
   xmlns:inkscape="http://www.inkscape.org/namespaces/inkscape"
   width="300.65195mm"
   height="298.67783mm"
   viewBox="0 0 300.65195 298.67783"
   version="1.1"
   id="svg4833"
   inkscape:version="0.92.3 (2405546, 2018-03-11)"
   sodipodi:docname="cetic.svg">
  <defs
     id="defs4827" />
  <sodipodi:namedview
     id="base"
     pagecolor="#ffffff"
     bordercolor="#666666"
     borderopacity="1.0"
     inkscape:pageopacity="0.0"
     inkscape:pageshadow="2"
     inkscape:zoom="0.35"
     inkscape:cx="95.846178"
     inkscape:cy="581.61897"
     inkscape:document-units="mm"
     inkscape:current-layer="layer1"
     showgrid="false"
     inkscape:window-width="1600"
     inkscape:window-height="823"
     inkscape:window-x="-9"
     inkscape:window-y="-9"
     inkscape:window-maximized="1" />
  <metadata
     id="metadata4830">
    <rdf:RDF>
      <cc:Work
         rdf:about="">
        <dc:format>image/svg+xml</dc:format>
        <dc:type
           rdf:resource="http://purl.org/dc/dcmitype/StillImage" />
        <dc:title></dc:title>
      </cc:Work>
    </rdf:RDF>
  </metadata>
  <g
     inkscape:label="Capa 1"
     inkscape:groupmode="layer"
     id="layer1"
     transform="translate(9.4843004,-4.0422003)">
    <rect
       style="opacity:1;fill:#ffffff;fill-opacity:0.98156684;stroke:#ffffff;stroke-width:0.10155443;stroke-linecap:square;stroke-linejoin:round;stroke-miterlimit:4;stroke-dasharray:none;stroke-dashoffset:0;stroke-opacity:1;paint-order:markers fill stroke"
       id="rect820"
       width="300.55038"
       height="298.57626"
       x="-9.4335232"
       y="4.0929775" />
    <path
       style="fill:#aa0000;stroke:#a40000;stroke-width:0.26458332px;stroke-linecap:butt;stroke-linejoin:miter;stroke-opacity:1"
       d="M 3.389525,7.5400027 C 2.111235,7.6548319 0.58054493,8.4132336 0.47463493,9.8440474 0.45303493,11.307431 1.789935,12.265117 2.877505,13.001796 c 1.12762,0.695298 2.27001,1.408059 3.1425,2.420037 1.5026,1.276324 3.4220996,1.87968 5.10281,2.870862 18.306731,9.493621 36.83848,18.545387 55.150374,28.029007 25.612167,13.078063 51.224331,26.156152 76.836501,39.234215 0.58544,0.607881 1.4877,0.05464 1.90316,-0.480853 0.57551,-0.595895 1.2156,-1.402027 2.15062,-1.246955 1.23533,-0.02651 2.49467,-0.11131 3.71525,0.08398 0.70021,0.25982 1.28692,0.884343 1.39268,1.638141 0.70342,0.975889 2.01588,1.517147 2.27464,2.789766 0.70121,1.867112 -0.13793,3.90697 -1.33531,5.367894 -1.00621,1.348581 -2.73343,2.205328 -4.4249,1.867561 -1.53694,-0.165179 -2.83031,-1.098206 -4.01083,-2.015543 -1.53986,-0.771102 -2.20224,-2.597653 -2.19345,-4.233677 0.063,-0.776208 -0.2781,-1.563106 -0.98883,-1.93249 -3.35867,-1.777789 -6.66929,-3.656568 -10.00843,-5.475341 v 71.10108 c 4.03183,1.94326 8.02253,3.96989 12.02201,5.97844 1.25519,-0.66736 2.37114,-1.96278 3.92776,-1.74125 0.75867,0.003 1.51747,0.007 2.27599,-0.0122 1.13776,0.76235 2.74792,0.98002 3.43132,2.29857 1.05412,1.22473 1.861,3.00905 1.11199,4.58856 -0.41604,1.35205 -0.95674,2.91214 -2.37775,3.49711 -1.45441,0.92604 -3.36518,1.49762 -5.005,0.70739 -0.93083,-0.29628 -2.08218,-0.50411 -2.50746,-1.51503 -0.62513,-0.9388 -1.52116,-1.836 -1.45952,-3.05454 -0.0428,-0.61714 0.2645,-1.22653 0.19132,-1.82621 -0.38836,-0.85791 -1.46633,-0.93453 -2.17961,-1.40938 -3.04731,-1.49288 -6.08009,-3.01514 -9.11686,-4.52929 -0.0524,12.29487 -0.10473,24.58971 -0.15709,36.88458 l 111.90945,0.15708 c 0.71799,-0.97506 0.69361,-2.44134 1.63762,-2.94812 0.64386,-1.27477 1.76619,-2.76424 3.54125,-3.43012 1.96409,-0.50954 3.97445,-0.99115 5.87613,-0.34097 1.64018,0.28795 3.86652,1.3549 4.84164,2.83882 0.98305,1.04177 1.35277,1.73407 2.07918,3.19541 0.68673,2.14355 0.47104,4.4862 -0.1217,6.62408 -0.66065,2.00951 -1.44687,3.42102 -3.36654,4.4122 -1.37796,0.49454 -3.33218,1.10119 -4.75743,1.39424 -1.24402,-0.27076 -2.7295,-0.44527 -3.85437,-0.85933 -0.84328,-0.31041 -1.56667,-0.87863 -2.42276,-1.04752 -1.32596,-0.74522 -1.95309,-1.37614 -2.97189,-2.52651 -0.2938,-0.53181 -0.85042,-1.81078 -1.11934,-2.33521 -0.62552,-0.57914 -1.53549,-0.12848 -2.28617,-0.23899 -26.26542,0.038 -52.53089,0.0439 -78.79632,0.0827 -11.6325,0.0148 -23.26501,0.0298 -34.89751,0.0447 0.0524,-25.11301 0.10473,-50.22604 0.1571,-75.33908 -3.61012,1.98816 -7.22023,3.97635 -10.83035,5.96451 v 3.29591 c -0.30504,0.59873 -0.0785,1.46868 -0.76031,1.84991 -0.59702,0.59206 -1.00761,1.5293 -1.87758,1.74382 -2.43446,0.0503 -5.13039,0.15915 -7.19569,-1.35255 -1.71982,-1.44862 -2.03595,-4.03892 -1.21903,-6.04946 0.28391,-1.25955 1.15893,-2.27708 2.15296,-3.04993 1.35491,-1.34821 3.58538,-1.2318 5.12208,-0.26649 0.89473,0.43257 1.72324,1.36176 2.80709,1.10077 0.94554,-0.24987 1.68907,-0.93924 2.56426,-1.35363 2.87345,-1.63796 5.7695,-3.2358 8.64901,-4.86302 0.60956,-0.5969 0.13233,-1.50114 0.26468,-2.23673 -0.0495,-11.60235 -0.0989,-23.20467 -0.14841,-34.807019 L 72.411673,54.293677 72.273179,62.482346 c 0.773489,0.21082 1.679835,0.733716 2.177437,1.34816 0.706112,0.871916 1.99785,2.106245 2.118317,3.291099 0.444984,1.612138 0.105942,1.926223 -0.296272,4.027647 -0.189241,0.988724 -1.662457,1.982763 -2.170033,2.236046 -0.691936,0.800418 -2.208051,0.63812 -3.133228,0.707176 -1.061066,0 -2.420313,-0.312931 -3.182927,-1.041381 -0.902054,-0.522129 -1.958808,-2.749511 -1.958808,-2.749511 -0.532998,-2.359951 -0.199866,-4.423018 1.552191,-6.175512 0.522632,-0.634207 1.222227,-1.129851 1.726221,-1.759929 0.471176,-1.293098 -0.01712,-2.677928 0.167765,-4.008279 -2.65e-4,-1.825493 -7.94e-4,-3.650985 -0.0011,-5.476478 C 51.562425,43.934551 34.473286,33.666672 16.221195,25.88457 c -1.38021,-0.58848 -0.14499,3.117215 0.63407,4.472067 0.59522,0.355203 1.58268,0.167005 1.8285,0.982504 0.39437,0.61124 1.22291,0.830341 1.90099,0.631877 1.17518,0.383488 1.48521,1.762946 2.44791,2.420515 0.67556,0.975334 -0.17848,2.10185 0.006,3.155712 0.0462,2.412444 0.17009,4.825815 0.0737,7.237968 0.0215,1.124797 1.06539,1.948418 0.93741,3.104224 -0.0411,0.691727 -0.59534,1.219835 -0.60151,1.928045 -0.14574,1.443091 0.20705,2.912613 -0.15813,4.337712 -0.15623,0.644366 0.42086,1.076007 0.95564,1.267116 1.41025,0.589015 2.725701,1.381284 4.107291,2.037741 22.421249,11.359912 44.856314,22.692519 67.287695,34.032402 1.182383,-1.640523 3.399298,-1.966198 5.279099,-1.750986 1.58544,-0.03545 3.70975,1.57993 4.31203,3.108031 0.79975,1.22809 1.02744,1.897965 0.78636,3.399608 0.0462,1.502542 -0.84021,2.806467 -1.88014,3.849874 -0.60625,0.60828 -2.02947,1.82979 -3.86112,1.70492 -1.203301,-0.082 -2.953683,-0.69836 -3.916814,-1.42059 -1.635488,-1.22642 -1.681634,-3.20235 -1.586148,-4.686072 -0.01267,-0.792269 -0.28335,-1.719924 -1.12908,-1.97874 C 88.924425,91.354182 84.23223,88.931207 79.518654,86.551465 59.680235,76.469041 39.833996,66.402042 19.988095,56.334382 c -1.93088,-0.150839 -3.71041,0.927073 -5.01243,2.261155 -1.30075,0.921121 -2.94007,1.655313 -3.55449,3.239294 -0.16486,1.128765 0.87656,2.060496 0.63002,3.199236 0.13187,1.129691 1.07548,1.935665 2.03552,2.404348 0.92062,0.806635 2.70095,1.919605 4.01572,2.034408 2.40937,0.773694 3.41565,2.500603 5.76914,3.399578 1.41872,0.974593 1.50382,2.840196 1.86904,4.365837 0.17147,1.172977 -0.28328,2.581354 0.63779,3.534965 0.882881,0.765016 1.883271,1.390888 2.717681,2.209536 1.21365,0.846269 2.50318,1.596892 3.5986,2.597441 2.3853,1.569243 5.57333,1.411552 7.77069,3.320229 0.67303,0.780389 1.75432,0.82042 2.65154,1.151308 0.99771,0.453099 2.03478,1.048915 3.17318,0.868283 2.270709,0.07752 4.450279,1.221264 6.746779,0.787004 1.48972,-0.06461 3.03937,-0.235347 4.32188,-1.062117 0.88706,-0.457359 1.89767,-0.456248 2.86573,-0.466619 1.25358,-0.123587 2.495337,-0.346393 3.724753,-0.618014 0.257966,-0.379095 1.209249,-0.975281 1.193678,-0.133721 -0.01696,0.787533 -0.04572,1.637348 0.425513,2.310183 0.26592,0.879475 0.610468,1.817688 1.435175,2.322513 0.924652,0.724111 1.688004,1.672854 1.986303,2.825723 0.505151,1.406181 1.118809,2.788576 1.455058,4.245668 0.419399,2.5192 -0.439092,5.15773 0.434223,7.61107 0.795579,1.69405 2.0768,3.16416 2.519085,5.01658 0.265441,0.66342 1.02707,0.6658 1.62419,0.67128 0.747543,0.18621 1.366168,0.69802 1.969389,1.15186 0.588198,0.56642 -0.03018,1.31821 -0.04333,1.97776 -0.237331,1.06672 0.373081,2.02573 0.896512,2.89637 0.583766,1.27307 0.329544,2.73 0.332954,4.08585 0.04154,0.6622 -5.29e-4,1.36197 -0.479933,1.87487 -0.6526,0.7897 -1.546087,1.38829 -1.984682,2.34288 -0.976085,1.44251 -1.78577,3.04628 -2.016315,4.79063 -0.437097,1.53654 -0.953593,3.06297 -1.60206,4.51966 -0.609754,0.81778 -2.030241,0.94536 -2.13509,2.13548 -0.123883,0.78076 -0.328374,1.84105 -1.272971,1.98057 -0.924748,0.24894 -2.125922,-0.17505 -2.294178,-1.21857 -0.612003,-1.7885 -0.656275,-3.71948 -1.207765,-5.5159 -0.615879,-1.07884 -1.830332,-2.07523 -1.535226,-3.45098 0.243784,-0.93052 -0.391846,-2.22555 -1.489382,-2.05026 -0.805591,0.0246 -1.556251,0.47384 -2.050701,1.09582 -1.06359,0.18344 -1.65049,-0.91974 -2.23564,-1.60395 -0.72514,-1.11398 -1.83605,-1.88299 -2.93407,-2.58133 -1.0712,-0.53192 -2.52692,0.0579 -2.82291,1.24465 -0.30525,1.13446 0.0177,2.32119 -0.16864,3.47443 -0.0761,1.34853 -0.44221,2.65626 -0.79522,3.94708 -0.15819,1.21066 -0.0562,2.43546 -0.15046,3.6504 0.49415,1.14332 1.92354,1.16388 2.81942,1.83783 12.056127,6.25123 24.112256,12.50246 36.168382,18.75369 1.437036,-0.25344 2.199727,-2.02248 3.756358,-1.90066 1.885802,0.014 4.026223,0.0918 5.455484,1.50066 0.898171,1.13705 1.349421,2.03407 1.717441,3.42749 -0.009,1.55877 -1.065647,3.12386 -1.525731,4.5425 -0.38302,0.95713 -0.93538,2.16406 -2.117486,2.24105 -1.035841,0.12928 -2.10658,0.12936 -3.133349,-0.0463 -0.903451,-0.34256 -1.480055,-1.23476 -2.443263,-1.47225 -0.858052,-0.31224 -1.791824,-0.80582 -2.010331,-1.77538 -0.45657,-1.14224 -0.465727,-2.38856 -0.577106,-3.59228 -0.301334,-0.8487 -1.325279,-0.9635 -1.989802,-1.42422 -6.593943,-3.43067 -13.232609,-6.77479 -19.844303,-10.17117 l -16.213184,-8.2809 c -0.50697,0.90305 -0.87365,1.89024 -1.51464,2.71354 -1.21069,0.22093 -2.35106,-0.58444 -3.561539,-0.34367 -1.56662,-0.26649 -2.83241,-1.79162 -2.66021,-3.3973 -0.0892,-0.75774 -0.69601,-1.30175 -1.29787,-1.68759 -0.7842,-0.84013 -1.07169,-2.28344 -2.3444,-2.55572 -1.37908,-0.32014 -2.56935,1.01428 -2.73532,2.29076 -0.25638,1.29178 -0.47275,2.60038 -0.98071,3.82231 -0.2415,0.74575 -0.18192,1.68378 -0.75299,2.26396 -0.48501,0.31596 -1.14854,0.63669 -1.12736,1.31458 -0.2497,1.21809 0.64171,2.22078 1.29106,3.13481 0.66324,1.28392 0.88982,2.76341 1.70349,3.97454 0.83996,1.80949 0.0272,3.89697 -1.13535,5.3625 -0.51573,0.70054 -1.12998,1.32284 -1.63714,2.03015 0.005,0.93763 1.01493,1.37821 1.34701,2.17535 0.74827,0.95768 2.04333,1.38589 2.60003,2.51015 0.0225,0.74004 -0.0293,1.55663 0.46757,2.16279 0.33872,0.9009 -0.23851,2.05721 0.54994,2.79868 1.55568,0.71033 3.08748,1.47397 4.5054,2.43562 0.78294,0.51361 1.65498,0.97139 2.61406,0.97811 0.624489,0.20516 1.141079,0.71364 1.838689,0.68723 1.39682,0.0705 2.55172,-0.91249 3.90169,-1.11802 2.60731,-0.62108 5.72037,0.52819 6.86712,3.04768 0.52793,1.10583 0.0994,2.32746 0.21183,3.4921 0.16177,1.94369 -1.14841,3.70877 -2.69803,4.73848 -2.09371,1.07011 -4.64125,0.37206 -6.4993,-0.87082 -1.44745,-0.95396 -2.76468,-2.53193 -2.57372,-4.37023 0.0673,-0.97515 0.0119,-2.10534 -0.83161,-2.75815 -0.512369,-0.54171 -1.260559,-0.71107 -1.976769,-0.6794 -1.36799,-0.26712 -2.19524,-1.76596 -3.66179,-1.7477 -0.7362,-0.15431 -1.33412,-1.03526 -2.14405,-0.68369 -1.04718,0.10121 -2.02689,1.28733 -1.52394,2.31976 0.44588,0.43847 1.27832,0.85032 1.05833,1.6061 -0.084,1.4673 -2.05367,2.04298 -1.89853,3.58651 0.0387,1.76072 0.72477,3.59291 -0.004,5.30339 -0.32414,0.8799 -1.04556,1.49905 -1.74058,2.07989 -0.72858,0.78221 -1.65716,1.61271 -2.81281,1.44269 -0.90934,-0.0101 -2.13503,-0.17457 -2.66344,0.75687 -0.43902,1.0832 0.0478,2.24546 0.004,3.36516 0.0888,1.16821 0.1729,2.34447 0.0547,3.51387 0.67796,1.2971 2.30376,1.4047 3.40385,2.17903 10.56596,5.3508 21.131919,10.70163 31.697884,16.05243 1.789065,-0.94062 3.753937,-2.00057 5.846156,-1.62885 1.217737,0.50665 2.800668,0.75337 3.41943,2.0805 0.671206,1.03811 1.501595,2.90146 1.150774,4.17549 -0.08348,1.33313 -0.204372,2.17919 -1.114603,3.26488 -0.768778,1.1809 -3.861707,2.3497 -6.193935,1.48571 -1.172768,-0.55221 -2.568834,-1.02854 -3.143306,-2.30441 -0.557215,-0.92078 -0.489489,-0.39389 -1.225317,-2.99286 0.0059,-0.67344 -0.330229,-1.37165 -1.015555,-1.57028 -10.955969,-5.65893 -21.929998,-11.28289 -32.881698,-16.95013 -0.18306,2.78495 -0.29158,5.5889 0.0129,8.36951 0.46254,1.00351 1.08445,1.94067 1.41224,2.99884 0.32534,0.53263 0.87938,0.85577 1.35813,1.23296 0.008,0.72977 -0.99609,0.3066 -1.34887,0.73485 -1.53742,1.13538 -2.952,2.43266 -4.558261,3.47676 -0.69188,0.44154 -1.28123,1.02963 -1.58089,1.80639 -0.80006,1.70209 -1.59218,3.43649 -1.86128,5.31598 -0.43472,2.57461 -0.38887,5.20822 -0.22407,7.80333 0.2791,1.69461 0.75349,3.3985 0.51108,5.12903 -0.0286,1.14292 -0.20277,2.27568 -0.27719,3.41569 0.26115,0.69966 1.2194,1.06781 1.07243,1.92344 0.10963,1.43857 -0.43793,3.08893 0.55589,4.32837 0.54334,0.82069 -0.12014,1.72186 -0.51005,2.44068 -0.97001,2.42901 0.16258,5.00293 -0.0473,7.50091 -0.11359,1.95064 0.46252,3.97439 1.7058,5.49439 0.48784,0.62423 1.464721,0.93017 1.455011,1.85703 -0.30023,1.98596 1.3862,3.73978 3.22481,4.17605 1.48687,0.43969 2.9705,-0.15012 4.37805,-0.5866 1.0979,-0.26602 2.36366,-0.46596 3.0461,-1.47641 0.43331,-0.56062 1.22309,-0.4418 1.70186,-0.89701 0.68776,-0.70932 0.83167,-1.74265 1.24628,-2.60821 0.59322,-1.83907 0.53866,-3.82315 1.22939,-5.63841 0.45059,-1.38956 0.6921,-2.83315 0.76842,-4.28897 0.36064,-3.35373 0.0887,-6.7437 0.45269,-10.09465 0.30454,-1.23962 0.91258,-2.42898 0.82634,-3.73877 0.2314,-5.47188 -0.7348,-11.03773 0.58081,-16.43002 0.11982,-0.64201 0.79596,-0.90144 1.38471,-0.81587 1.293319,0.0434 2.586869,0.36026 3.663119,1.10427 0.66845,0.45796 1.50447,0.10075 2.10109,-0.29925 0.61715,-0.23995 1.28079,0.16984 1.48171,0.77015 0.42951,0.76856 0.94272,1.51749 1.67782,2.01827 0.63742,0.74274 1.40303,1.56461 2.46018,1.56297 1.4876,0.36859 3.01137,0.756 4.55459,0.60198 1.015457,0.14259 1.931246,0.73568 2.686928,1.38938 0.412007,0.6721 0.459047,1.70733 1.35817,1.94667 1.802003,1.01497 3.557352,2.139 5.454851,2.96622 0.991592,0.18341 1.777248,-0.63495 2.571623,-1.08582 1.53793,-1.06188 2.591432,-2.68309 3.204252,-4.42701 0.82518,-1.81197 1.728203,-3.58791 2.596605,-5.37856 0.477618,-0.81997 1.078577,-1.70682 1.993813,-2.05356 0.998445,-0.0976 1.834562,0.60431 2.758657,0.86445 1.716029,0.68577 3.279769,1.74858 4.482465,3.15751 0.52646,0.52975 1.068025,1.05079 1.683914,1.47693 0.07186,0.69117 1.37573,0.44691 1.108975,-0.23617 -0.108564,-6.87559 -0.148109,-13.75198 -0.19947,-20.62818 -1.007935,-0.0546 -2.881384,-1.03017 -2.904032,-2.11697 -0.401759,-1.01052 -1.090454,-1.15842 -0.990042,-2.4031 -0.196927,-2.09904 0.209214,-3.78093 1.58686,-5.40055 1.481495,-1.31717 3.788209,-1.67131 5.60107,-1.36397 1.621931,0.3384 2.864517,1.62481 3.745635,2.95659 0.74587,1.19229 0.78432,2.70036 0.26184,3.98592 -0.53341,1.51376 -0.995146,2.56308 -2.176995,3.6543 -0.600456,0.3442 -1.697154,0.45068 -2.340009,0.44489 -0.624978,1.04568 -0.04898,2.28221 -0.280868,3.40635 -0.04969,6.95018 -0.09939,13.90039 -0.14908,20.85057 0.547272,0.58237 0.387792,1.73029 1.29191,1.97612 2.383465,1.20264 5.288013,-0.19317 7.603423,1.24047 1.12034,0.60714 2.16899,1.40639 2.86237,2.48558 1.16168,1.02885 2.72121,1.52172 4.2353,1.70137 1.04184,-0.0204 2.12989,-0.18544 3.11591,0.2363 0.73898,-0.11387 0.45145,-1.05415 0.44127,-1.56464 -0.15487,-5.57207 0.0105,-11.14642 -0.0262,-16.71957 0.032,-10.83792 0.064,-21.67581 0.0961,-32.51372 -0.59585,-1.27699 -2.15064,-1.49577 -3.12564,-2.37395 -1.06885,-0.68085 -1.80422,-1.95609 -1.59855,-3.24152 -0.0452,-1.57631 0.29126,-3.39884 1.62929,-4.39182 0.66772,-0.31845 1.48112,-0.59142 1.75803,-1.35429 0.51554,-0.91932 1.81559,-1.01944 2.60567,-0.40614 0.61346,0.45921 1.26415,0.93861 2.07021,0.92977 0.96546,0.0893 2.03663,0.35576 2.54382,1.27239 0.74589,1.03518 1.33072,2.21723 1.64177,3.45275 0.14831,1.39693 -0.76784,2.5767 -1.61075,3.58117 -0.65016,0.92466 -1.5488,1.85721 -2.75487,1.90172 -0.6199,0.12932 -1.09165,0.76491 -0.92627,1.39715 -0.11719,16.11181 -0.13333,32.22414 -0.18529,48.33623 0.5155,0.80402 1.28823,1.7109 2.35382,1.5367 1.08324,0.10168 2.17146,0.0206 3.25669,0.008 1.10884,-0.67831 0.96241,-2.13183 1.07828,-3.25334 0.10754,-3.88904 0.50536,-7.77246 0.34578,-11.6662 -0.005,-1.95765 -0.0555,-3.97375 0.62688,-5.83909 0.30183,-0.43354 -0.21515,-1.60509 0.59127,-1.38369 0.52994,0.45135 0.43106,1.25328 0.89202,1.76763 0.89262,1.46203 2.54727,2.56389 4.30895,2.38151 1.69401,0.09 2.87399,1.4841 4.38251,2.08013 0.59166,0.35325 1.34532,0.40357 1.89503,0.78185 1.04461,1.04261 1.92314,2.5777 3.5443,2.72317 4.2463,0.36443 8.51201,0.12853 12.76727,0.20367 36.53505,0.003 73.0701,0.004 109.60515,0.006 2.38254,-0.73713 4.8995,-0.3841 7.34841,-0.47337 1.82319,0.53742 4.07207,-0.20008 4.93508,-1.96371 0.27615,-2.62583 -0.0724,-5.26357 0.004,-7.89524 l -0.0451,-2.8519 h -91.50433 c -0.32814,0.54179 -0.89044,1.69332 -1.35895,2.20594 -0.91423,1.00028 0.0905,0.66741 -2.59585,2.31987 -1.86746,0.29184 -4.16589,-0.21684 -5.58595,-1.10681 -0.61837,-0.35859 -1.74,-1.51399 -1.69085,-2.27691 -0.20295,-1.17687 -0.76327,-1.693 -0.29395,-2.87283 -0.0691,-1.119 0.40042,-1.85707 1.18396,-2.95112 0.62255,-0.86925 2.05219,-2.08933 3.11723,-1.94129 1.58372,-0.1166 3.4341,-0.47898 4.74098,0.68106 1.12787,0.87736 1.6901,2.32426 2.8808,3.11812 1.08506,0.38348 2.24924,0.0499 3.36877,0.17092 29.45573,0.0472 58.91147,0.0944 88.36723,0.14158 0.0402,-2.46767 0.25196,-4.93469 0.12866,-7.40318 0.48821,-1.1294 0.26295,-2.4017 -0.22902,-3.48395 -0.41595,-1.27384 -0.52461,-2.68745 -0.0434,-3.95759 0.32284,-2.02747 0.0287,-4.09411 0.15229,-6.1251 0.19177,-0.56901 0.57269,-1.06505 0.73739,-1.63989 0.8444,-1.27817 1.57938,-2.64215 2.62237,-3.77629 0.38576,-0.78592 -0.54499,-1.61057 -1.31654,-1.38689 -22.60342,0.0374 -45.20691,-0.0265 -67.81028,0.006 -2.60798,0.32271 -5.24763,-0.0262 -7.8573,0.27162 -2.20906,0 -4.53259,-0.19238 -6.49893,-1.28029 -1.76115,-1.1135 -2.98491,-2.84808 -4.30178,-4.42108 -0.81933,-1.12271 -0.89764,-2.59416 -1.63927,-3.74756 -0.48816,-0.75899 -1.65418,-1.13948 -2.35112,-0.43432 -0.94137,0.82093 -1.11187,2.31066 -2.30663,2.88124 -0.85124,0.61171 -1.46315,1.61472 -2.57117,1.79623 -1.75918,0.55128 -3.16945,1.79988 -4.63641,2.8639 -1.03863,0.31385 -2.1465,0.13028 -3.20113,0.36597 -1.95246,0.20196 -3.98015,-0.0172 -5.85019,0.69633 -1.80647,0.57494 -3.87461,-0.17798 -5.08012,-1.59353 -0.72961,-0.82143 -0.84457,-1.94807 -0.79272,-2.99879 0.006,-1.16779 -0.10212,-2.35902 -0.56464,-3.43958 -0.4692,-2.91285 -2.6e-4,-5.86232 0.17802,-8.77948 -0.0556,-0.63807 0.39598,-1.03892 0.83039,-1.4214 0.5726,-0.48786 0.14306,-1.2214 0.0371,-1.81009 -0.347,-1.50882 -0.84832,-3.01919 -1.79429,-4.26286 -0.84537,-1.79359 -0.76753,-3.82815 -1.10921,-5.74292 -0.21353,-2.84046 0.12274,-5.68383 0.16549,-8.52392 0.23237,-2.21409 0.27334,-4.43997 0.20812,-6.66329 0.0238,-2.01092 -0.10051,-4.02281 -0.25303,-6.02327 0.098,-2.37535 0.59829,-4.80391 -0.0384,-7.14695 -0.10368,-1.98528 0.50079,-3.94441 0.29839,-5.92997 0.12267,-1.72337 1.14548,-3.29613 0.94844,-5.06006 -0.0429,-2.37077 0.15648,-4.81845 -0.69528,-7.08426 -0.72946,-1.97787 -0.33756,-4.12692 -0.4043,-6.184347 -0.0611,-1.197372 -0.15908,-2.491926 -0.0599,-3.630613 0.033,-0.120121 -0.0273,-0.851456 0.0243,-1.359614 0.0787,-2.037848 0.0133,-4.087125 -0.36433,-6.094386 -0.2281,-2.182733 -0.44112,-4.371102 -0.8211,-6.531981 -0.12509,-1.901507 0.0724,-3.877574 -0.63608,-5.68915 -0.26809,-1.726062 0.92536,-3.162485 1.66671,-4.598458 0.4777,-1.349349 -0.1704,-2.899675 0.62851,-4.170495 0.76007,-1.456531 0.0469,-3.553645 -1.59922,-3.996849 -1.08621,-0.157109 -2.19802,0.03363 -3.29541,-0.01429 -2.88833,0.07657 -5.83924,-0.295461 -8.67265,0.4241 -0.99982,0.339302 -1.30618,1.522915 -1.53559,2.442739 -0.45717,1.797527 -0.26796,3.70766 -0.82561,5.491322 -0.28989,0.903763 -0.62923,1.791837 -0.99229,2.668984 -0.59428,0.407088 -1.23123,-0.193516 -1.59783,-0.631507 -1.13452,-0.674238 -2.57272,-0.881407 -3.44709,-1.947704 -0.9587,-0.74639 -2.0583,-1.37033 -3.2724,-1.562656 -0.88871,-0.761259 -0.26804,-2.032238 -0.67027,-2.992305 -0.37892,-2.005568 -1.08294,-3.985763 -0.97304,-6.053138 -0.30811,-1.293547 -1.76967,-1.627161 -2.69196,-2.364025 -2.05118,-1.183296 -4.67005,-0.418492 -6.66868,-1.758474 -1.03091,-0.595101 -2.10766,-1.184857 -2.98693,-1.981015 -0.41729,-0.75856 -0.005,-1.640919 -0.15606,-2.449459 0.0568,-0.685853 0.86535,-1.414092 0.31988,-2.066528 -0.60588,-0.486807 -1.52936,-0.305647 -2.06802,-0.920539 -0.97205,-0.711517 -1.77153,-1.661027 -2.18087,-2.801593 -0.5097,-0.871511 -1.40809,-1.449705 -1.8132,-2.395855 -0.44253,-0.865426 -0.98065,-1.699631 -1.76945,-2.284968 -1.02083,-1.131676 -1.46954,-2.643558 -1.9012,-4.070721 -0.20867,-1.801495 1.38025,-3.29229 1.08985,-5.110269 -0.0787,-1.042484 -1.27885,-1.194805 -1.96473,-1.715161 -0.97997,-0.674423 -1.64765,-1.709791 -2.60603,-2.396226 -1.5502,-0.703315 -3.20539,0.129805 -4.65236,0.706623 -1.57355,0.633122 -3.061351,1.465527 -4.420491,2.47658 -1.121558,0.667623 -2.465027,0.411691 -3.641119,0.05638 -0.996489,-0.284956 -2.026038,-0.41738 -3.055112,-0.474371 -1.29486,-0.260377 -2.233236,-1.258755 -3.10937,-2.167308 -1.026292,-0.80645 -2.416778,-1.274974 -2.992548,-2.542831 -0.59849,-0.890879 -0.949362,-2.200831 -2.10515,-2.506663 -0.899639,-0.250137 -1.780624,-0.592269 -2.510104,-1.186815 -1.356606,-0.820473 -2.920524,-1.192556 -4.46304,-1.462696 -1.398188,-0.488976 -2.099259,-1.895819 -2.967553,-2.973863 -1.096552,-0.85905 -2.58376,-0.365178 -3.824883,-0.793883 -1.451144,-0.269928 -2.852552,0.465296 -3.948694,1.348026 -1.109057,0.617008 -2.701682,0.213466 -3.515401,1.3707 -0.60739,0.852117 -1.55251,1.315535 -2.3534,1.94273 -0.68989,0.391795 -0.34433,1.08921 0.27941,1.290902 0.78848,0.334407 1.56379,0.687096 2.301006,1.121966 7.575296,3.805766 15.150592,7.611533 22.725888,11.417327 1.415021,-0.03641 2.212224,0.297502 3.116649,-0.810096 1.308565,-0.686674 3.829783,-0.501354 5.003363,0.0884 1.20205,0.646801 2.454945,1.676742 2.984664,3.106682 0.501145,1.488996 0.164375,2.062816 0.128871,3.596077 -0.323763,1.804114 -1.502968,3.448261 -3.099141,4.339695 -1.328357,0.484373 -1.891324,0.275043 -3.261575,0.434428 -1.688436,-0.1084 -3.034813,-1.032838 -4.094567,-2.196555 -0.682654,-0.834602 -1.259134,-2.659298 -1.072497,-3.700328 0.08558,-0.949298 -0.523446,-2.09968 -1.509646,-2.463191 -3.722761,-2.145903 -7.624977,-3.955733 -11.427222,-5.952914 -4.998873,-2.544763 -10.012363,-5.060633 -15.020923,-7.586239 -1.12428,0.387112 -1.9434,1.295135 -2.92127,1.929606 -0.51826,1.335881 0.85236,2.702242 0.13746,4.006982 -0.54279,0.715778 -1.48899,0.220186 -2.17558,0.0372 -0.93062,-0.340175 -1.89298,-0.684028 -2.89646,-0.632646 -1.19205,-0.225504 -2.303199,-0.837062 -3.141409,-1.712939 -2.07754,-0.472836 -4.33091,0.143643 -6.31863,-0.750437 -1.52124,-1.023726 -1.87297,-2.970054 -2.26173,-4.634257 -0.31471,-1.57353 -0.81798,-3.226937 -2.09434,-4.295642 -0.49892,-0.479538 -1.15382,-1.070935 -0.93439,-1.844074 0.13824,-0.710909 -0.47858,-1.123394 -1.10924,-1.097624 -2.46662,-0.60878 -4.10802,-3.080358 -6.725311,-3.256174 -1.59793,-0.152982 -3.41283,-0.03659 -4.68998,-1.192476 -1.17891,-0.942023 -2.4797,-2.033482 -4.09118,-1.917171 -2.6601,-0.165524 -5.43427,0.36105 -7.9873304,-0.6312166 C 8.2107746,8.7827242 6.949935,8.0487436 5.533495,7.9453179 4.829115,7.7658246 4.129035,7.4924836 3.389525,7.5401086 Z M 91.403279,207.48335 c 0.117608,0.18177 0.06061,-0.17915 0,0 z m 30.274641,-151.084304 -0.0847,-0.04135 z M 63.319722,130.09532 c -0.239178,0.34626 0.332242,-0.0826 0,0 z m -27.548706,13.44414 c 0.0138,0.0654 0.13273,-0.11563 0,0 z m 14.781529,0.0475 c 0.0507,0.0844 0.0113,-0.2042 0,0 z M 153.83462,165.1536 c -0.0615,0.33028 0.0994,-0.0135 0,0 z m -113.881434,9.34982 c -0.003,0.0995 0.0643,-0.0638 0,0 z M 277.3842,183.2176 c -0.35954,0.1624 0.15497,-0.003 0,0 z M 65.016259,216.49106 c 0.110638,0.014 0.155326,-0.22865 0,0 z m -40.097294,3.24527 c -0.0437,0.14344 0.18314,-0.20682 0,0 z m 112.571945,6.75722 c -0.028,0.12867 0.22894,-0.24428 0,0 z m 0.91622,0.13074 c -0.0136,0.1139 0.0936,-0.0299 0,0 z m -62.116107,5.35162 c 0.03344,0.17997 0.09765,-0.0161 0,0 z m 19.77812,1.99212 c -0.154808,0.13396 0.09133,0.0268 0,0 z"
       id="path3928"
       inkscape:connector-curvature="0"
       sodipodi:nodetypes="cccccscccccccccsccssccccsccccccccccccccccsccssscccscscccscssscscscsccccscsssccsccccscscscscsssccsccscssccccscssccssccsccssscsccsccssccccccccccsccsccccccccsccccccccscccccsccscccccccccccccccccccccccccccccccccccsccccccccscssscscscscssscccccccsscscssccccccccscscsccsccccccscccccccccccccccccccccccccccscccssccccsssccscscssccsccccsccssccsccccccccsccccccccccccccccccsccscsscccssssssssssssscsssscscscccccccsscccscscsccsscccccccccccccccccsssssscccccccccccccccc" />
    <path
       style="fill:#999999;stroke:#000000;stroke-width:0.73289585;stroke-linecap:butt;stroke-linejoin:miter;stroke-miterlimit:4;stroke-dasharray:none;stroke-opacity:1"
       d="m 169.72468,130.73153 c 29.99144,1.08752 37.05165,29.27909 34.18126,35.04793 -0.66586,1.33821 -6.24507,1.01068 -7.64777,-0.18788 -2.80632,-10.36693 -3.32355,-21.08542 -25.36182,-26.63304 -0.54433,-0.137 -1.10179,-0.27088 -1.67274,-0.4015 z"
       id="path3940"
       inkscape:connector-curvature="0"
       sodipodi:nodetypes="cscscc" />
    <path
       style="fill:#999999;stroke:#000000;stroke-width:0.73289585;stroke-linecap:butt;stroke-linejoin:miter;stroke-miterlimit:4;stroke-dasharray:none;stroke-opacity:1"
       d="m 169.18406,112.23091 c 50.40393,5.19542 54.42159,45.25921 52.73669,53.26179 -0.4804,2.28172 -7.67031,1.38803 -7.98728,-0.75805 -1.67236,-13.90206 -7.73481,-37.75195 -39.32725,-42.90973 -4.30249,-0.70244 -4.51994,-1.19888 -5.47948,-1.39859 z"
       id="path3940-9"
       inkscape:connector-curvature="0"
       sodipodi:nodetypes="cscscc" />
    <path
       style="fill:#999999;stroke:#000000;stroke-width:0.73289585;stroke-linecap:butt;stroke-linejoin:miter;stroke-miterlimit:4;stroke-dasharray:none;stroke-opacity:1"
       d="m 169.0409,94.770667 c 59.73051,0.800021 73.56589,57.870483 71.30965,69.788723 -0.57382,3.03112 -7.9975,2.45864 -8.44474,-0.37204 -0.80645,-18.29233 -10.63425,-52.83393 -54.99235,-60.20283 -5.69042,-0.9453 -6.59954,-0.80441 -7.84245,-1.28977 z"
       id="path3940-9-3"
       inkscape:connector-curvature="0"
       sodipodi:nodetypes="cscscc" />
    <path
       style="fill:#999999;stroke:#000000;stroke-width:0.73224604px;stroke-linecap:butt;stroke-linejoin:miter;stroke-opacity:1"
       d="m 168.9503,76.478275 c 77.72237,4.365889 92.53362,72.911485 89.51519,87.541915 -0.78239,3.79227 -8.65975,3.08406 -9.23092,-0.46667 0.4501,-19.5416 -11.33965,-69.048945 -72.89392,-78.181171 -6.09085,-0.903657 -5.76459,-0.221615 -7.3519,-0.95197 z"
       id="path3940-9-3-4"
       inkscape:connector-curvature="0"
       sodipodi:nodetypes="cscscc" />
    <path
       style="fill:#999999;stroke:#000000;stroke-width:0.73289585;stroke-linecap:butt;stroke-linejoin:miter;stroke-miterlimit:4;stroke-dasharray:none;stroke-opacity:1"
       d="m 169.42772,58.836864 c 94.53954,2.627153 110.29625,90.170556 106.81727,107.303436 -0.41434,2.04044 -8.31409,0.50866 -8.82529,-3.00067 0.45226,-21.7565 -13.41125,-82.708771 -88.30568,-95.646764 -10.37529,-1.79234 -8.02089,-0.438917 -9.86133,-1.362287 z"
       id="path3940-9-3-4-1"
       inkscape:connector-curvature="0"
       sodipodi:nodetypes="cscscc" />
    <text
       xml:space="preserve"
       style="font-style:normal;font-variant:normal;font-weight:normal;font-stretch:normal;font-size:98.77777863px;line-height:1.25;font-family:'Niagara Solid';-inkscape-font-specification:'Niagara Solid';letter-spacing:0.015875px;word-spacing:0px;fill:#000000;fill-opacity:1;stroke:none;stroke-width:0.26458332"
       x="75.138161"
       y="297.37442"
       id="text4004"><tspan
         sodipodi:role="line"
         id="tspan4002"
         x="75.138161"
         y="297.37442"
         style="font-size:93.4861145px;letter-spacing:0px;stroke-width:0.26458332">C.E.T.I.C.</tspan></text>
  </g>
</svg>
